<?xml version="1.0" standalone="no"?><!DOCTYPE svg PUBLIC "-//W3C//DTD SVG 1.1//EN" "http://www.w3.org/Graphics/SVG/1.1/DTD/svg11.dtd"><svg t="1704356641114" class="icon" viewBox="0 0 1024 1024" version="1.1" xmlns="http://www.w3.org/2000/svg" p-id="100978" xmlns:xlink="http://www.w3.org/1999/xlink" width="200" height="200"><path d="M512 0C229.2 0 0 229.2 0 512s229.2 512 512 512 512-229.2 512-512S794.8 0 512 0zM109.7 512c0 6.7-5.5 12.2-12.2 12.2-6.7 0-12.2-5.5-12.2-12.2 0-16.7 1-33.6 2.9-50.1 0.8-6.7 6.8-11.5 13.5-10.7 6.7 0.8 11.5 6.8 10.7 13.5-1.8 15.6-2.7 31.5-2.7 47.3z m9.7-88.2c-1.3 5.7-6.3 9.5-11.9 9.5-0.9 0-1.8-0.1-2.7-0.3-6.6-1.5-10.7-8-9.2-14.5C138.8 225.5 313.9 85.3 512 85.3c6.7 0 12.2 5.5 12.2 12.2 0 6.7-5.5 12.2-12.2 12.2-186.8 0-351.9 132.1-392.6 314.1z m483.1 178.7C502.5 702.5 331 693 331 693s-9.5-171.6 90.5-271.5C521.5 321.5 693 331 693 331s9.5 171.5-90.5 271.5z" fill="#cdcdcd" p-id="100979"></path><path d="M585.1 519.9L512 593.8l-73.1-73.9c-17.9-20.5-17.9-53.8 0-74.3s47.1-20.5 65 0l8.1 9.3 8.1-9.3c17.9-20.5 47.1-20.5 65 0 18 20.5 18 53.8 0 74.3z" fill="#cdcdcd" p-id="100980"></path></svg>