<?xml version="1.0" standalone="no"?><!DOCTYPE svg PUBLIC "-//W3C//DTD SVG 1.1//EN" "http://www.w3.org/Graphics/SVG/1.1/DTD/svg11.dtd"><svg t="1704348633875" class="icon" viewBox="0 0 1024 1024" version="1.1" xmlns="http://www.w3.org/2000/svg" p-id="62594" xmlns:xlink="http://www.w3.org/1999/xlink" width="200" height="200"><path d="M736.0512 676.096a89.1904 89.1904 0 0 1-89.1904-89.2416 89.1904 89.1904 0 0 1 89.1904-89.1904h207.7184V396.7488a107.52 107.52 0 0 0-107.52-107.52H207.3088a107.52 107.52 0 0 0-107.52 107.52v418.048a107.52 107.52 0 0 0 107.52 107.52h629.0432a107.52 107.52 0 0 0 107.52-107.52v-138.7008z" fill="#59ADF8" p-id="62595"></path><path d="M732.8256 588.8512m-42.9568 0a42.9568 42.9568 0 1 0 85.9136 0 42.9568 42.9568 0 1 0-85.9136 0Z" fill="#59ADF8" p-id="62596"></path><path d="M395.52 240.64h423.2704l-50.4832-89.4976a98.5088 98.5088 0 0 0-132.096-38.5024z" fill="#59ADF8" p-id="62597"></path></svg>