<?xml version="1.0" standalone="no"?><!DOCTYPE svg PUBLIC "-//W3C//DTD SVG 1.1//EN" "http://www.w3.org/Graphics/SVG/1.1/DTD/svg11.dtd"><svg t="1704344088907" class="icon" viewBox="0 0 1024 1024" version="1.1" xmlns="http://www.w3.org/2000/svg" p-id="49673" xmlns:xlink="http://www.w3.org/1999/xlink" width="200" height="200"><path d="M783.7184 880.2304H235.4176c-90.4704 0-163.84-73.3696-163.84-163.84v-423.936c0-90.4704 73.3696-163.84 163.84-163.84h548.3008c90.4704 0 163.84 73.3696 163.84 163.84v423.936c0 90.5216-73.3696 163.84-163.84 163.84z" fill="#aaaaf8" p-id="49674"></path><path d="M305.7152 350.3104m-50.8928 0a50.8928 50.8928 0 1 0 101.7856 0 50.8928 50.8928 0 1 0-101.7856 0Z" fill="#FFCD43" p-id="49675"></path><path d="M856.5248 621.9264l-90.9824-117.4528c-15.104-19.5072-37.888-31.9488-62.5152-34.1504-24.576-2.2016-49.2032 6.0928-67.4816 22.6304L462.848 649.3184c-4.5568 4.1472-11.52 4.1984-16.128 0.1536L369.152 581.5296a88.8832 88.8832 0 0 0-118.6816 1.3312l-83.456 76.4928a38.43072 38.43072 0 0 0-2.3552 54.272 38.43072 38.43072 0 0 0 54.272 2.3552l83.456-76.4928c4.5568-4.1984 11.52-4.2496 16.1792-0.1536l77.568 67.9424c16.7936 14.6944 37.6832 22.016 58.5728 22.016 21.4016 0 42.752-7.68 59.6992-22.9888l172.6976-156.3136c3.4304-3.072 7.2192-3.2256 9.216-3.072 1.9456 0.1536 5.6832 1.024 8.5504 4.6592l90.9824 117.4528a38.4 38.4 0 0 0 53.8624 6.8608c16.7424-13.1072 19.8144-37.2224 6.8096-53.9648z" fill="#FFCD43" p-id="49676"></path></svg>