<?xml version="1.0" standalone="no"?><!DOCTYPE svg PUBLIC "-//W3C//DTD SVG 1.1//EN" "http://www.w3.org/Graphics/SVG/1.1/DTD/svg11.dtd"><svg t="1704348786923" class="icon" viewBox="0 0 1024 1024" version="1.1" xmlns="http://www.w3.org/2000/svg" p-id="80106" xmlns:xlink="http://www.w3.org/1999/xlink" width="200" height="200"><path d="M641.724632 748.975158a22.096842 22.096842 0 0 1-8.138106-30.342737l22.042948-38.319158a22.204632 22.204632 0 0 1 30.342737-8.08421l23.821473 13.689263 44.678737-25.815579v-26.624c0-12.234105 9.970526-22.258526 22.204632-22.258526h44.193684c12.234105 0 22.204632 10.024421 22.204631 22.258526v27.594105l44.517053 25.761684 20.210526-11.695158 0.323369-0.592842a60.901053 60.901053 0 0 0-22.204632-82.944l-65.374316-37.726315V416.552421l65.212632-37.618526c28.833684-16.761263 38.804211-53.894737 22.096842-82.836211l-60.254316-104.394105c-16.707368-28.887579-53.894737-38.912-82.782315-22.096842l-63.434106 36.648421-121.478737-70.224842V60.685474C579.907368 27.270737 552.690526 0 519.275789 0H398.713263c-33.414737 0-60.631579 27.216842-60.631579 60.685474v72.757894L216.117895 203.829895l-64.997053-37.564632a60.631579 60.631579 0 0 0-82.782316 22.150737L8.084211 293.025684a60.362105 60.362105 0 0 0-5.928422 46.026105c4.149895 15.629474 14.174316 28.725895 28.186948 36.810106l62.895158 36.378947v145.461895l-62.625684 36.109474c-14.012632 8.084211-23.983158 21.234526-28.186948 36.917894-4.257684 15.629474-2.101895 32.013474 5.928421 45.918316l60.308211 104.394105a59.984842 59.984842 0 0 0 52.709052 30.288842c10.455579 0 20.857263-2.748632 30.181053-8.138105l64.565895-37.241263 121.370947 70.063158v73.404631c0 33.414737 27.270737 60.685474 60.685474 60.685474h120.508631c33.414737 0 60.631579-27.216842 60.631579-60.685474V834.290526l85.423158-49.367579v-22.635789l-23.013052-13.258105z m-183.727158-112.316632A151.767579 151.767579 0 0 1 306.445474 485.052632a151.767579 151.767579 0 0 1 151.552-151.605895A151.767579 151.767579 0 0 1 609.603368 485.052632a151.767579 151.767579 0 0 1-151.605894 151.605894z" fill="#3396FB" p-id="80107" cursorshover="true"></path><path d="M1007.993263 834.775579l-34.654316-18.863158v-68.661895l34.492632-18.863158a29.426526 29.426526 0 0 0 11.749053-41.391157l-31.905685-52.170106a33.145263 33.145263 0 0 0-43.816421-11.102316l-4.419368 2.425264-29.157053 15.898947-64.350316-35.085474v-37.726315c0-16.707368-14.389895-30.288842-32.067368-30.288843h-63.811368c-17.731368 0-32.121263 13.635368-32.121264 30.342737v36.325053l-64.565894 35.247158-34.384842-18.755369a33.145263 33.145263 0 0 0-43.870316 11.048421l-31.905684 52.277895a28.725895 28.725895 0 0 0-3.125895 23.013053c2.209684 7.814737 7.545263 14.336 14.928842 18.432l33.306947 18.162526v72.757895l-33.145263 18.054737a30.342737 30.342737 0 0 0-14.928842 18.432 28.672 28.672 0 0 0 3.125895 23.013052l31.905684 52.170106c4.257684 7.006316 11.210105 12.018526 19.509895 14.120421a33.414737 33.414737 0 0 0 24.414316-3.018106l34.169263-18.647579 64.242526 35.031579v36.702316c0 16.707368 14.443789 30.342737 32.121263 30.342737h63.811369c17.677474 0 32.121263-13.635368 32.121263-30.342737v-37.564631l64.350316-35.139369 33.953684 18.53979a33.199158 33.199158 0 0 0 24.360421 3.018105 31.797895 31.797895 0 0 0 19.509895-14.120421l31.905684-52.170105a29.534316 29.534316 0 0 0-11.749053-41.498948zM781.473684 862.315789a80.842105 80.842105 0 0 1-80.842105-80.842105c0-3.072 0.538947-5.982316 0.91621-9.000421A80.572632 80.572632 0 0 1 862.315789 781.473684a80.842105 80.842105 0 0 1-80.842105 80.842105z" fill="#BBE2FF" p-id="80108"></path><path d="M910.282105 642.048l-64.350316-35.085474v-37.726315c0-16.707368-14.389895-30.288842-32.067368-30.288843h-63.811368c-17.731368 0-32.121263 13.635368-32.121264 30.342737v36.325053l-64.565894 35.247158-34.384842-18.755369a33.145263 33.145263 0 0 0-43.870316 11.048421l-31.905684 52.277895a28.725895 28.725895 0 0 0-3.125895 23.013053c2.209684 7.814737 7.545263 14.336 14.928842 18.432l33.306947 18.162526v72.757895l-33.145263 18.054737a30.342737 30.342737 0 0 0-14.928842 18.432 28.672 28.672 0 0 0 3.125895 23.013052l31.905684 52.170106c2.155789 3.449263 3.772632-95.770947 125.359158-202.644211 28.348632-24.845474 98.250105-53.140211 209.650526-84.776421z" fill="#65AFE7" p-id="80109"></path><path d="M437.894737 491.789474m-163.031579 0a163.031579 163.031579 0 1 0 326.063158 0 163.031579 163.031579 0 1 0-326.063158 0Z" fill="#FFB541" p-id="80110"></path></svg>