<?xml version="1.0" standalone="no"?><!DOCTYPE svg PUBLIC "-//W3C//DTD SVG 1.1//EN" "http://www.w3.org/Graphics/SVG/1.1/DTD/svg11.dtd"><svg t="1704349752419" class="icon" viewBox="0 0 1024 1024" version="1.1" xmlns="http://www.w3.org/2000/svg" p-id="94162" xmlns:xlink="http://www.w3.org/1999/xlink" width="200" height="200"><path d="M423.837 114.819v-0.274H204.083c-45.912 0-83.095 36.932-83.357 82.593h-0.023v207.58c0 2.468 0.5 4.783 1.239 7 6.678 39.246 40.832 69.164 82.14 69.164h219.755v-0.237c38.877-2.433 70.477-31.363 76.798-68.927 0.763-2.217 1.289-4.532 1.289-7v-207.58h-0.026c-0.214-43.885-34.654-79.599-78.061-82.319z m34.202 278.641c0 24.148-19.655 43.706-43.886 43.706H208.446c-24.23 0-43.859-19.558-43.859-43.706V201.98c0-24.149 19.628-43.718 43.859-43.718h205.708c24.23 0 43.886 19.57 43.886 43.718v191.48z m444.208-198.348c-0.216-42.8-33.819-77.645-76.154-80.305v-0.262H634.385c-44.79 0-81.04 36.038-81.305 80.566h-0.023v202.511c0 2.408 0.476 4.673 1.24 6.832 6.488 38.292 39.83 67.472 80.089 67.472h191.708v-0.226c37.922-2.385 68.735-30.613 74.961-67.246 0.74-2.159 1.217-4.424 1.217-6.832v-202.51h-0.025zM859.46 386.639c0 23.551-19.152 42.643-42.813 42.643h-177.97c-23.658 0-42.834-19.092-42.834-42.643V199.832c0-23.552 19.176-42.643 42.835-42.643h177.969c23.66 0 42.813 19.092 42.813 42.643V386.64z m-443.78 153.248v-0.26H201.839c-44.67 0-80.874 35.943-81.114 80.375h-0.023v201.974c0 2.42 0.477 4.688 1.215 6.821 6.464 38.182 39.735 67.316 79.922 67.316h213.842v-0.236c37.824-2.35 68.567-30.53 74.744-67.08 0.762-2.133 1.241-4.401 1.241-6.821V620.002h-0.049c-0.215-42.694-33.697-77.466-75.936-80.115z m33.294 271.154c0 23.493-19.128 42.524-42.691 42.524h-193.33-6.87c-23.564 0-42.69-19.031-42.69-42.524V624.688c0-23.47 19.126-42.526 42.69-42.526h200.2c23.564 0 42.692 19.056 42.692 42.526V811.04z m272.18-57.92c-14.743 0-26.668 11.508-26.668 25.699v51.395c0 14.229 11.924 25.722 26.667 25.722 14.737 0 26.663-11.492 26.663-25.722V778.82c0-14.191-11.925-25.7-26.663-25.7z m113.62-25.722c-14.739 0-26.664 11.495-26.664 25.697v77.118c0 14.215 11.924 25.702 26.665 25.702 14.763 0 26.689-11.488 26.689-25.702v-77.118c0-14.201-11.927-25.697-26.69-25.697z m0-154.227c-14.739 0-26.664 11.506-26.664 25.723v51.396c0 14.189 11.924 25.697 26.665 25.697 14.763 0 26.689-11.508 26.689-25.697v-51.396c0-14.216-11.927-25.723-26.69-25.723z m-113.62 0.024c-14.743 0-26.668 11.507-26.668 25.71v102.83c0 14.192 11.924 25.685 26.667 25.685 14.737 0 26.663-11.492 26.663-25.686v-102.83c0-14.202-11.925-25.71-26.663-25.71zM606.05 701.736c-14.69 0-26.641 11.435-26.641 25.663v102.816c0 14.215 11.951 25.702 26.64 25.702 14.788 0 26.713-11.488 26.713-25.702V727.4c0-14.228-11.925-25.664-26.712-25.664z m0-128.564c-14.69 0-26.641 11.506-26.641 25.723v25.71c0 14.201 11.951 25.686 26.64 25.686 14.788 0 26.713-11.485 26.713-25.686v-25.71c0-14.216-11.925-25.723-26.712-25.723z" fill="#8a8a8a" p-id="94163"></path></svg>