<?xml version="1.0" standalone="no"?><!DOCTYPE svg PUBLIC "-//W3C//DTD SVG 1.1//EN" "http://www.w3.org/Graphics/SVG/1.1/DTD/svg11.dtd"><svg t="1705388617947" class="icon" viewBox="0 0 1024 1024" version="1.1" xmlns="http://www.w3.org/2000/svg" p-id="23687" xmlns:xlink="http://www.w3.org/1999/xlink" width="200" height="200"><path d="M710.9 217.8h-400c-22.1 0-40 17.9-40 40v508c0 22.1 17.9 40 40 40h215c8.3 0 15-6.7 15-15s-6.7-15-15-15h-205c-11 0-20-9-20-20v-488c0-11 9-20 20-20h380c11 0 20 9 20 20v313c0 8.3 6.7 15 15 15s15-6.7 15-15v-323c0-22.1-17.9-40-40-40z" fill="#ffffff" p-id="23688" cursorshover="true"></path><path d="M828.7 617.9c-5.9-5.9-15.4-5.9-21.2 0l-152 152-78.4-78.4c-5.9-5.9-15.4-5.9-21.2 0-5.9 5.9-5.9 15.4 0 21.2l89 89c5.9 5.9 15.4 5.9 21.2 0l162.6-162.6c5.9-5.8 5.9-15.3 0-21.2zM595.9 469c8.3 0 15-6.7 15-15s-6.7-15-15-15h-69.8l79.2-79.2c5.9-5.9 5.9-15.4 0-21.2-5.9-5.9-15.4-5.9-21.2 0l-73.2 73.2-73.2-73.2c-5.9-5.9-15.4-5.9-21.2 0-5.9 5.9-5.9 15.4 0 21.2l79.2 79.2h-69.8c-8.3 0-15 6.7-15 15s6.7 15 15 15h70v34h-70c-8.3 0-15 6.7-15 15s6.7 15 15 15h70v101.5c0 8.3 6.7 15 15 15s15-6.7 15-15V533h70c8.3 0 15-6.7 15-15s-6.7-15-15-15h-70v-34h70z" fill="#ffffff" p-id="23689"></path></svg>