<?xml version="1.0" standalone="no"?><!DOCTYPE svg PUBLIC "-//W3C//DTD SVG 1.1//EN" "http://www.w3.org/Graphics/SVG/1.1/DTD/svg11.dtd"><svg t="1705388671352" class="icon" viewBox="0 0 1024 1024" version="1.1" xmlns="http://www.w3.org/2000/svg" p-id="27504" xmlns:xlink="http://www.w3.org/1999/xlink" width="200" height="200"><path d="M812.07 831.28H211.93c-23.4 0-42.43-18.23-42.43-40.64V233.36c0-22.4 19.03-40.64 42.43-40.64h600.15c23.4 0 42.43 18.23 42.43 40.64v557.29c-0.01 22.4-19.04 40.63-42.44 40.63zM211.93 227.55c-4.13 0-7.6 2.65-7.6 5.81v557.29c0 3.15 3.47 5.81 7.6 5.81h600.15c4.13 0 7.6-2.65 7.6-5.81V233.36c0-3.15-3.47-5.81-7.6-5.81H211.93z" p-id="27505" cursorshover="true" fill="#ffffff"></path><path d="M445.42 589.42c-65.15 0-118.17-53.01-118.17-118.15 0-65.16 53.02-118.17 118.17-118.17s118.17 53.01 118.17 118.17c0 65.14-53.02 118.15-118.17 118.15z m0-201.49c-45.94 0-83.33 37.38-83.33 83.33 0 45.94 37.39 83.32 83.33 83.32s83.33-37.38 83.33-83.32c0.01-45.95-37.39-83.33-83.33-83.33z" p-id="27506" fill="#ffffff"></path><path d="M586.47 730.46c-9.61 0-17.42-7.8-17.42-17.42 0-68.16-55.47-123.63-123.63-123.63s-123.63 55.47-123.63 123.63c0 9.61-7.8 17.42-17.42 17.42-9.61 0-17.42-7.8-17.42-17.42 0-87.37 71.09-158.46 158.46-158.46s158.46 71.09 158.46 158.46c0.01 9.62-7.79 17.42-17.4 17.42zM600.46 527.47c-7.98 0-15.17-5.52-16.98-13.65-2.09-9.39 3.85-18.69 13.24-20.77 37.78-8.37 65.19-42.59 65.19-81.35 0-45.94-37.39-83.32-83.33-83.32-20.66 0-40.48 7.61-55.81 21.43-7.19 6.43-18.19 5.86-24.6-1.28s-5.85-18.15 1.29-24.59c21.75-19.59 49.84-30.39 79.12-30.39 65.15 0 118.17 53.01 118.17 118.15 0 54.97-38.89 103.48-92.5 115.36-1.27 0.27-2.54 0.41-3.79 0.41z" p-id="27507" fill="#ffffff"></path><path d="M719.62 670.89c-9.61 0-17.42-7.8-17.42-17.42 0-68.16-55.47-123.63-123.63-123.63-9.61 0-17.42-7.8-17.42-17.42s7.8-17.42 17.42-17.42c87.37 0 158.46 71.09 158.46 158.46 0.01 9.63-7.79 17.43-17.41 17.43z" p-id="27508" fill="#ffffff"></path></svg>