<?xml version="1.0" standalone="no"?><!DOCTYPE svg PUBLIC "-//W3C//DTD SVG 1.1//EN" "http://www.w3.org/Graphics/SVG/1.1/DTD/svg11.dtd"><svg t="1705386370516" class="icon" viewBox="0 0 2925 1024" version="1.1" xmlns="http://www.w3.org/2000/svg" p-id="3767" xmlns:xlink="http://www.w3.org/1999/xlink" width="571.2890625" height="200"><path d="M0 0h58.514286v1024H0zM87.771429 0h29.257142v1024H87.771429zM160.914286 0h73.142857v1024h-73.142857zM277.942857 0h73.142857v1024h-73.142857zM380.342857 0h58.514286v1024h-58.514286zM468.114286 0h58.514285v1024h-58.514285zM570.514286 0h87.771428v1024h-87.771428zM672.914286 0h58.514285v1024h-58.514285zM760.685714 0h73.142857v1024h-73.142857zM863.085714 0h29.257143v1024h-29.257143zM906.971429 0h73.142857v1024h-73.142857zM1009.371429 0h58.514285v1024h-58.514285zM1126.4 0h43.885714v1024h-43.885714zM1258.057143 0h43.885714v1024h-43.885714zM1316.571429 0h58.514285v1024h-58.514285zM1418.971429 0h43.885714v1024h-43.885714zM1506.742857 0h43.885714v1024h-43.885714zM1579.885714 0h87.771429v1024h-87.771429zM1711.542857 0h73.142857v1024h-73.142857zM1813.942857 0h29.257143v1024h-29.257143zM1872.457143 0h87.771428v1024h-87.771428zM1989.485714 0h29.257143v1024h-29.257143zM2077.257143 0h73.142857v1024h-73.142857zM2165.028571 0h58.514286v1024h-58.514286zM2282.057143 0h29.257143v1024h-29.257143zM2325.942857 0h43.885714v1024h-43.885714zM2472.228571 0h29.257143v1024h-29.257143zM2560 0h43.885714v1024h-43.885714zM2691.657143 0h73.142857v1024h-73.142857zM2779.428571 0h43.885715v1024h-43.885715zM2837.942857 0h73.142857v1024h-73.142857z" fill="#000000" p-id="3768" cursorshover="true"></path></svg>