<?xml version="1.0" standalone="no"?><!DOCTYPE svg PUBLIC "-//W3C//DTD SVG 1.1//EN" "http://www.w3.org/Graphics/SVG/1.1/DTD/svg11.dtd"><svg t="1705386724695" class="icon" viewBox="0 0 1186 1024" version="1.1" xmlns="http://www.w3.org/2000/svg" p-id="12745" xmlns:xlink="http://www.w3.org/1999/xlink" width="231.640625" height="200"><path d="M137.151131 126.030769c0-35.21448 37.99457-73.20905 73.20905-73.20905h257.621719V0H212.213575C141.784615 0 84.329412 57.455204 84.329412 127.884163v254.841629h52.821719V126.030769z m918.356561 0v257.62172h52.82172V127.884163c0-70.428959-57.455204-127.884163-127.884163-127.884163H724.676923v52.821719H982.298643c35.21448 0 73.20905 37.99457 73.209049 73.20905z m0 771.938462c0 35.21448-37.99457 73.20905-73.209049 73.20905H724.676923v52.821719h254.841629c70.428959 0 127.884163-57.455204 127.884163-127.884163V640.347511l-52.82172 0.926697v256.695023zM878.508597 498.562896c-12.047059 10.193665-25.020814 22.240724-38.921267 37.067873H1186.171946v-37.067873H878.508597z m-616.253393 15.753846l20.38733-15.753846H0v37.067873h226.114027l36.141177-21.314027zM137.151131 897.969231V640.347511H84.329412v254.841629c0 70.428959 57.455204 127.884163 127.884163 127.884163h254.841629v-52.821719H210.360181c-35.21448 0.926697-73.20905-37.067873-73.20905-72.282353z" fill="#8ce95e" p-id="12746"></path><path d="M906.309502 401.259729c-34.287783-78.769231-14.827149-142.711312-10.193665-216.847059C693.169231 288.202715 565.285068 597.719457 565.285068 597.719457L486.515837 444.81448 322.490498 543.971041C391.99276 568.991855 491.149321 646.834389 574.552036 750.624434c59.308597-108.423529 242.79457-329.904072 331.757466-349.364705z" fill="#8ce95e" p-id="12747"></path></svg>